<?xml version="1.0" standalone="no"?>
<!DOCTYPE svg PUBLIC "-//W3C//DTD SVG 20010904//EN"
 "http://www.w3.org/TR/2001/REC-SVG-20010904/DTD/svg10.dtd">
<svg version="1.0" xmlns="http://www.w3.org/2000/svg"
 width="512.000000pt" height="512.000000pt" viewBox="0 0 512.000000 512.000000"
 preserveAspectRatio="xMidYMid meet">
<metadata>
Created by potrace 1.11, written by Peter Selinger 2001-2013
</metadata>
<g transform="translate(0.000000,512.000000) scale(0.100000,-0.100000)"
fill="#000000" stroke="none">
<path d="M2360 5114 c-202 -24 -306 -41 -425 -71 -912 -228 -1630 -946 -1858
-1858 -55 -222 -72 -365 -72 -625 0 -260 17 -403 72 -625 228 -912 946 -1630
1858 -1858 222 -55 365 -72 625 -72 260 0 403 17 625 72 912 228 1630 946
1858 1858 55 222 72 365 72 625 0 260 -17 403 -72 625 -225 902 -929 1614
-1828 1851 -207 54 -368 75 -610 79 -115 2 -226 1 -245 -1z m600 -667 c380
-333 741 -547 1078 -638 53 -14 127 -23 240 -28 89 -5 164 -10 167 -13 3 -2 5
-272 5 -599 0 -483 -2 -617 -15 -714 -68 -515 -263 -924 -563 -1181 -274 -235
-795 -605 -1187 -844 l-120 -73 -39 23 c-219 126 -970 639 -1141 781 -331 272
-555 637 -644 1049 -50 236 -54 288 -58 948 l-5 622 146 0 c215 0 337 31 571
144 335 162 745 468 1079 805 l100 100 130 -136 c72 -75 187 -186 256 -246z"/>
<path d="M2539 4444 c-13 -14 -80 -77 -149 -138 -339 -304 -653 -518 -940
-641 -135 -58 -249 -85 -383 -92 l-118 -6 4 -531 c4 -570 7 -609 62 -827 48
-189 112 -335 210 -484 74 -112 235 -288 341 -372 161 -128 488 -354 852 -590
l144 -92 106 66 c413 255 964 661 1105 813 206 222 340 541 393 930 10 78 14
231 14 596 l0 491 -112 6 c-128 7 -256 37 -393 92 -314 126 -690 391 -1000
704 -55 56 -102 101 -106 101 -3 0 -16 -12 -30 -26z m115 -312 c166 -159 416
-350 615 -470 216 -130 440 -221 640 -259 l93 -17 -5 -411 c-5 -445 -12 -520
-67 -732 -53 -206 -152 -407 -268 -542 -94 -110 -448 -381 -826 -633 -131 -87
-246 -163 -256 -168 -15 -8 -76 28 -332 199 -172 115 -378 257 -458 316 -364
270 -552 560 -620 961 -28 164 -40 368 -40 710 l0 300 76 12 c174 27 440 138
661 276 186 115 447 313 621 470 40 36 75 66 79 66 3 0 42 -35 87 -78z"/>
<path d="M1880 2967 c-344 -117 -454 -543 -208 -803 186 -197 461 -215 676
-45 l51 41 164 0 c162 0 164 0 187 -25 35 -38 110 -82 172 -104 281 -97 582
77 644 371 25 116 3 245 -60 352 -34 58 -132 149 -197 181 -107 55 -106 55
-759 55 -599 -1 -606 -1 -670 -23z m220 -216 c5 -11 10 -44 10 -74 0 -49 -3
-58 -31 -81 -40 -34 -64 -33 -100 3 -25 25 -29 37 -29 85 0 71 15 86 85 86 43
0 56 -4 65 -19z m1030 9 c10 -5 23 -24 29 -41 24 -69 -40 -132 -109 -107 -82
28 -60 158 27 158 19 0 43 -4 53 -10z m-1216 -211 c34 -40 33 -64 -3 -100 -25
-25 -37 -29 -85 -29 -71 0 -86 15 -86 85 0 65 11 74 92 75 51 0 59 -3 82 -31z
m387 21 c15 -9 19 -22 19 -68 0 -32 -5 -63 -12 -70 -7 -7 -39 -12 -74 -12 -57
0 -64 2 -88 31 -33 39 -33 60 3 98 25 27 36 31 81 31 28 0 60 -5 71 -10z m669
-10 c13 -13 20 -33 20 -60 0 -53 -27 -80 -80 -80 -53 0 -80 27 -80 80 0 27 7
47 20 60 13 13 33 20 60 20 27 0 47 -7 60 -20z m325 14 c25 -10 47 -62 40 -95
-8 -37 -40 -59 -87 -59 -48 0 -78 30 -78 79 0 62 61 99 125 75z m-1210 -179
c21 -20 25 -34 25 -84 0 -70 -19 -91 -82 -91 -56 0 -78 27 -78 95 0 48 4 60
26 80 35 32 78 32 109 0z m1055 -25 c13 -13 20 -33 20 -60 0 -52 -27 -80 -77
-80 -51 0 -83 32 -83 82 0 51 27 78 80 78 27 0 47 -7 60 -20z"/>
</g>
</svg>
