<svg xmlns="http://www.w3.org/2000/svg" viewBox="0 0 1034 1045"><defs><style>.cls-1{fill:#2b2b2b;}.cls-2{fill:#aaabb8;}.cls-3,.cls-4{fill:none;stroke-miterlimit:10;}.cls-3{stroke:#aaabb8;stroke-width:58px;}.cls-4{stroke:#333;stroke-width:29px;}</style></defs><title>consolewarriorlogo</title><g id="Laag_3" data-name="Laag 3"><g id="Laag_2" data-name="Laag 2"><circle class="cls-1" cx="518" cy="520" r="508"/><path class="cls-2" d="M519,155S677,324,821,327V474s4,159-95,241S518,862,518,862,342,750,310,715s-97-93-94-268V327C345,329,519,155,519,155Z"/><path class="cls-3" d="M520.05,128s174.76,186.93,334,190.25V480.84S858.51,656.71,749,747.41,518.94,910,518.94,910,324.27,786.12,288.87,747.41,181.58,644.54,184.9,451V318.25C327.59,320.46,520.05,128,520.05,128Z"/><path class="cls-4" d="M519.5,166s158,169,302,172V485s4,159-95,241-208,147-208,147-176-112-208-147-97-93-94-268V338C345.5,340,519.5,166,519.5,166Z"/></g></g><g id="Laag_4" data-name="Laag 4"><rect class="cls-1" x="360.57" y="435" width="300.86" height="164.17" rx="62.94"/><circle class="cls-1" cx="621.69" cy="532.31" r="97.31"/><circle class="cls-1" cx="413.31" cy="532.31" r="97.31"/><circle class="cls-2" cx="621.46" cy="494.48" r="17.14"/><circle class="cls-2" cx="587.46" cy="532.09" r="17.14"/><circle class="cls-2" cx="621.36" cy="569.4" r="17.14"/><circle class="cls-2" cx="655.36" cy="532.09" r="17.14"/><path class="cls-2" d="M409,546.26l-10,8.93a6,6,0,0,0-2,4.46l0,21.6a6,6,0,0,0,6,6h20a6,6,0,0,0,6-6V559.65a6,6,0,0,0-2-4.46l-10-8.93A6,6,0,0,0,409,546.26Z"/><path class="cls-2" d="M409,518.31l-10-8.93a5.94,5.94,0,0,1-2-4.46l0-21.6a6,6,0,0,1,6-5.95h20a6,6,0,0,1,6,6v21.6a6,6,0,0,1-2,4.45l-10,8.93A6,6,0,0,1,409,518.31Z"/><path class="cls-2" d="M430.64,536.26l8.92,10a6,6,0,0,0,4.47,2l21.59,0a6,6,0,0,0,6-6v-20a6,6,0,0,0-6-6H444a6,6,0,0,0-4.45,2l-8.93,10A6,6,0,0,0,430.64,536.26Z"/><path class="cls-2" d="M395.25,535.52l-8.92,10a6,6,0,0,1-4.47,2l-21.59,0a6,6,0,0,1-6-6v-20a6,6,0,0,1,6-6h21.59a6,6,0,0,1,4.45,2l8.93,10A6,6,0,0,1,395.25,535.52Z"/></g></svg>